PathFileType	4	(X/Y/Z)	/Users/itak/Documents/Research/Walk-IL/dataset/trc/00217_00009.trc
DataRate	CameraRate	NumFrames	NumMarkers	Units	OrigDataRate	OrigDataStartFrame	OrigNumFrames
100.000000	100.000000	4	53	mm	100.000000	62	501
Frame#	Time	RPSI			LPSI			L3			STRN			T10			C7			CLAV			RBAK			LBAK			LSHO			LUPA			LAEL			LAOL			LWTS			LWPS			LFRA			LIFD			LHPS			LHTS			RSHO			RUPA			RAEL			RAOL			RWPS			RFRA			RIFD			RHPS			RBHD			LFHD			RFHD			LBHD			LHIP			RHIP			RASI			LASI			LKNE			LTHI			LANK			LTIP			LTOE			LMT1			LMT5			LHEE			RKNE			RTHI			RANK			RTIP			RTOE			RMT1			RMT5			RHEE			RHTS			RWTS			
		X1	Y1	Z1	X2	Y2	Z2	X3	Y3	Z3	X4	Y4	Z4	X5	Y5	Z5	X6	Y6	Z6	X7	Y7	Z7	X8	Y8	Z8	X9	Y9	Z9	X10	Y10	Z10	X11	Y11	Z11	X12	Y12	Z12	X13	Y13	Z13	X14	Y14	Z14	X15	Y15	Z15	X16	Y16	Z16	X17	Y17	Z17	X18	Y18	Z18	X19	Y19	Z19	X20	Y20	Z20	X21	Y21	Z21	X22	Y22	Z22	X23	Y23	Z23	X24	Y24	Z24	X25	Y25	Z25	X26	Y26	Z26	X27	Y27	Z27	X28	Y28	Z28	X29	Y29	Z29	X30	Y30	Z30	X31	Y31	Z31	X32	Y32	Z32	X33	Y33	Z33	X34	Y34	Z34	X35	Y35	Z35	X36	Y36	Z36	X37	Y37	Z37	X38	Y38	Z38	X39	Y39	Z39	X40	Y40	Z40	X41	Y41	Z41	X42	Y42	Z42	X43	Y43	Z43	X44	Y44	Z44	X45	Y45	Z45	X46	Y46	Z46	X47	Y47	Z47	X48	Y48	Z48	X49	Y49	Z49	X50	Y50	Z50	X51	Y51	Z51	X52	Y52	Z52	X53	Y53	Z53	

63	0.62	-1576.206787109375	1049.9482421875	-120.4484176635742	-1565.005126953125	1055.987670898438	-240.8300476074219	-1575.725341796875	1130.202270507812	-197.9244689941406	-1338.01708984375	1321.341918945312	-183.6668090820312	-1589.129028320312	1257.803833007812	-191.8351135253906	-1532.371459960938	1520.38232421875	-192.9043731689453	-1366.582885742188	1438.280883789062	-183.5299377441406	-1610.43701171875	1381.388549804688	-123.4467620849609	-1546.89892578125	1481.804565429688	-303.8970947265625	-1455.184814453125	1482.64794921875	-355.852294921875	-1477.68310546875	1363.931030273438	-434.7282104492188	-1454.218994140625	1153.4990234375	-461.6549072265625	-1530.23876953125	1135.869750976562	-422.2867126464844	-1369.4072265625	917.2999877929688	-398.823974609375	-1386.4150390625	902.6671752929688	-479.9677734375	-1429.203735351562	1046.577880859375	-473.7154846191406	-1366.977783203125	718.9963989257812	-412.2224426269531	-1371.666870117188	813.8553466796875	-476.2103881835938	-1334.280883789062	815.668212890625	-418.0663146972656	-1480.634399414062	1478.475952148438	-20.9454517364502	-1500.46728515625	1413.4326171875	45.88391876220703	-1513.330200195312	1130.501708984375	78.36233520507812	-1549.578857421875	1125.8095703125	-9.677011489868164	-1431.096923828125	900.0066528320312	96.20944976806641	-1486.7783203125	1061.740234375	89.35167694091797	-1368.339233398438	720.1195068359375	23.95122718811035	-1392.158325195312	791.9407958984375	95.63222503662109	-1500.270385742188	1660.835327148438	-118.8543472290039	-1316.161743164062	1743.839721679688	-224.0204010009766	-1306.779052734375	1732.007690429688	-125.3087310791016	-1469.362426757812	1688.60693359375	-252.6893615722656	-1453.497802734375	993.7216186523438	-371.7861022949219	-1481.762329101562	1012.466613769531	-2.481670141220093	-1388.664306640625	1054.3681640625	-36.0218391418457	-1354.720703125	1035.494750976562	-317.3211669921875	-1444.176879882812	508.7645874023438	-329.3287963867188	-1436.02490234375	652.5448608398438	-360.0206298828125	-1537.765869140625	41.52547454833984	-323.6166687011719	-1500.713012695312	289.0645751953125	-338.5195007324219	-1324.80029296875	46.67611312866211	-265.0331115722656	-1393.916015625	40.35191345214844	-222.6530456542969	-1408.9248046875	41.48478317260742	-338.2873229980469	-1601.223510742188	47.32662963867188	-272.7991943359375	-1472.827880859375	518.473876953125	-48.92781829833984	-1435.019653320312	784.607177734375	1.804629445075989	-1548.36865234375	39.6280517578125	-87.82733154296875	-1471.65234375	404.0024719238281	-67.66346740722656	-1333.438232421875	47.81314468383789	-103.4363327026367	-1382.319946289062	46.22148132324219	-152.6831512451172	-1442.1005859375	39.26872634887695	-47.29243087768555	-1602.939819335938	40.88275909423828	-155.3283386230469	-1340.99951171875	792.1353759765625	43.97573852539062	-1379.204345703125	914.192138671875	30.50823974609375	
64	0.63	-1576.254150390625	1050.028198242188	-120.3925323486328	-1565.0126953125	1056.05029296875	-240.760009765625	-1575.760009765625	1130.265991210938	-197.8855743408203	-1337.938110351562	1321.31640625	-183.6674957275391	-1589.079956054688	1257.883666992188	-191.78955078125	-1532.099975585938	1520.4189453125	-192.7821197509766	-1366.411499023438	1438.2890625	-183.4979705810547	-1610.270141601562	1381.4677734375	-123.4074478149414	-1546.733032226562	1481.899291992188	-303.8626708984375	-1454.956909179688	1482.691650390625	-355.780029296875	-1477.61865234375	1363.972534179688	-434.6890563964844	-1454.288208007812	1153.514404296875	-461.5812377929688	-1530.362426757812	1135.947265625	-422.2257690429688	-1369.65087890625	917.2548828125	-398.6867980957031	-1386.689331054688	902.6363525390625	-479.8307495117188	-1429.3916015625	1046.56640625	-473.627685546875	-1367.246215820312	718.96630859375	-411.9807434082031	-1372.025756835938	813.8204956054688	-476.0497131347656	-1334.508666992188	815.6345825195312	-417.894775390625	-1480.417236328125	1478.462890625	-20.91303825378418	-1500.247192382812	1413.470703125	45.89893341064453	-1513.183349609375	1130.523193359375	78.43183898925781	-1549.45751953125	1125.82861328125	-9.640537261962891	-1431.021850585938	899.9971313476562	96.22720336914062	-1486.67431640625	1061.746826171875	89.39136505126953	-1368.389526367188	720.072998046875	23.94330978393555	-1392.123779296875	791.904052734375	95.62983703613281	-1500.034912109375	1660.951782226562	-118.920783996582	-1315.658935546875	1743.688354492188	-223.7861175537109	-1306.444458007812	1731.862426757812	-125.1365585327148	-1468.970947265625	1688.70166015625	-252.6428375244141	-1453.663452148438	993.73583984375	-371.7752990722656	-1482.30126953125	1012.296813964844	-2.82877516746521	-1388.665161132812	1054.339721679688	-36.02402877807617	-1354.777709960938	1035.48291015625	-317.2966613769531	-1444.294921875	508.7528991699219	-329.3369445800781	-1436.194213867188	652.5508422851562	-360.0333251953125	-1537.766357421875	41.51975250244141	-323.6171875	-1500.775756835938	289.0617065429688	-338.5225524902344	-1324.8076171875	46.67805862426758	-265.0367126464844	-1393.92578125	40.35295867919922	-222.6461486816406	-1408.929443359375	41.48616790771484	-338.2914428710938	-1601.22998046875	47.30971908569336	-272.7900695800781	-1472.8232421875	518.468994140625	-48.93231582641602	-1435.067504882812	784.6153564453125	1.837515592575073	-1548.36669921875	39.6238899230957	-87.82601928710938	-1471.648681640625	403.9993591308594	-67.66512298583984	-1333.444702148438	47.81502151489258	-103.4470977783203	-1382.316284179688	46.21709060668945	-152.685791015625	-1442.097900390625	39.27835845947266	-47.30474472045898	-1602.938720703125	40.88156127929688	-155.3261108398438	-1341.0498046875	792.0809936523438	43.97564697265625	-1379.204345703125	914.1539306640625	30.49982452392578	
65	0.64	-1576.291748046875	1050.098876953125	-120.342155456543	-1565.022338867188	1056.11328125	-240.6854858398438	-1575.798095703125	1130.32763671875	-197.8439483642578	-1337.85205078125	1321.293701171875	-183.6663665771484	-1589.0341796875	1257.958862304688	-191.7406158447266	-1531.826538085938	1520.446655273438	-192.6513061523438	-1366.219848632812	1438.30322265625	-183.4636077880859	-1610.101440429688	1381.545654296875	-123.3401412963867	-1546.56640625	1481.989990234375	-303.8323974609375	-1454.74169921875	1482.733032226562	-355.7080383300781	-1477.563232421875	1364.007934570312	-434.6474914550781	-1454.32373046875	1153.52783203125	-461.4877319335938	-1530.447265625	1136.01318359375	-422.1482543945312	-1369.841430664062	917.2261352539062	-398.5191040039062	-1386.901489257812	902.610595703125	-479.6615600585938	-1429.549682617188	1046.55419921875	-473.5295715332031	-1367.450317382812	718.9589233398438	-411.6878051757812	-1372.28076171875	813.785888671875	-475.8392944335938	-1334.645263671875	815.640625	-417.7308959960938	-1480.196044921875	1478.449340820312	-20.87869644165039	-1500.04443359375	1413.513427734375	45.91894149780273	-1513.007934570312	1130.539672851562	78.50347900390625	-1549.310180664062	1125.83984375	-9.604308128356934	-1430.873779296875	899.9830322265625	96.22671508789062	-1486.5185546875	1061.74462890625	89.41826629638672	-1368.317260742188	720.0361328125	23.8778018951416	-1391.955932617188	791.8714599609375	95.60579681396484	-1499.786499023438	1661.066162109375	-118.9798889160156	-1315.16064453125	1743.530883789062	-223.5639495849609	-1306.077514648438	1731.717163085938	-124.9621505737305	-1468.586181640625	1688.801025390625	-252.6081390380859	-1453.822021484375	993.750244140625	-371.7601623535156	-1482.899536132812	1012.116027832031	-3.193188190460205	-1388.656127929688	1054.313354492188	-36.02713012695312	-1354.83544921875	1035.471069335938	-317.2713928222656	-1444.408081054688	508.7388610839844	-329.3398132324219	-1436.363159179688	652.555908203125	-360.0452880859375	-1537.76806640625	41.51332473754883	-323.6177673339844	-1500.832885742188	289.0578308105469	-338.5235900878906	-1324.814453125	46.67778778076172	-265.0387878417969	-1393.931762695312	40.35498428344727	-222.6427612304688	-1408.934814453125	41.48797607421875	-338.2949829101562	-1601.237060546875	47.29315567016602	-272.7803344726562	-1472.819946289062	518.4630126953125	-48.93627166748047	-1435.108642578125	784.6200561523438	1.868918418884277	-1548.364501953125	39.62026214599609	-87.82436370849609	-1471.647338867188	403.9980773925781	-67.66651153564453	-1333.448486328125	47.81809997558594	-103.4588088989258	-1382.31103515625	46.21297454833984	-152.6888122558594	-1442.098022460938	39.28582763671875	-47.31892013549805	-1602.937377929688	40.88059234619141	-155.3228607177734	-1341.003173828125	792.078125	43.97247695922852	-1379.170288085938	914.1273193359375	30.46859359741211	
66	0.65	-1576.318603515625	1050.158813476562	-120.298469543457	-1565.033813476562	1056.176391601562	-240.6067047119141	-1575.837036132812	1130.387084960938	-197.7988891601562	-1337.75341796875	1321.274047851562	-183.6629943847656	-1588.98974609375	1258.030029296875	-191.6878967285156	-1531.5556640625	1520.466430664062	-192.5157623291016	-1366.009399414062	1438.32275390625	-183.4262084960938	-1609.93115234375	1381.619018554688	-123.2432022094727	-1546.394775390625	1482.076416015625	-303.80322265625	-1454.539428710938	1482.771606445312	-355.6359558105469	-1477.513427734375	1364.037353515625	-434.6026000976562	-1454.3232421875	1153.538818359375	-461.3744201660156	-1530.491943359375	1136.0673828125	-422.0520324707031	-1369.967651367188	917.2168579101562	-398.3218688964844	-1387.045776367188	902.5899047851562	-479.4597778320312	-1429.673583984375	1046.542114257812	-473.4189453125	-1367.589599609375	718.974609375	-411.3498840332031	-1372.421997070312	813.7527465820312	-475.5781860351562	-1334.714477539062	815.6666870117188	-417.572265625	-1479.971923828125	1478.438110351562	-20.8411979675293	-1499.856079101562	1413.558715820312	45.94950103759766	-1512.807983398438	1130.55419921875	78.57476043701172	-1549.137817382812	1125.843017578125	-9.567560195922852	-1430.655883789062	899.966552734375	96.20695495605469	-1486.30908203125	1061.734252929688	89.43264007568359	-1368.119384765625	720.0106811523438	23.75740623474121	-1391.671508789062	791.845458984375	95.55984497070312	-1499.521484375	1661.178833007812	-119.023323059082	-1314.668701171875	1743.367065429688	-223.3553619384766	-1305.67041015625	1731.57421875	-124.7881546020508	-1468.198974609375	1688.89990234375	-252.5836334228516	-1453.970581054688	993.7650146484375	-371.7394714355469	-1483.53271484375	1011.931640625	-3.557276964187622	-1388.636596679688	1054.288208007812	-36.03085708618164	-1354.896240234375	1035.459228515625	-317.24609375	-1444.515869140625	508.7225341796875	-329.3364868164062	-1436.528442382812	652.5594482421875	-360.0551452636719	-1537.77099609375	41.50651168823242	-323.618408203125	-1500.88427734375	289.0525512695312	-338.5222473144531	-1324.820434570312	46.67610549926758	-265.039794921875	-1393.934326171875	40.35791015625	-222.6434631347656	-1408.940063476562	41.48973083496094	-338.2975463867188	-1601.244262695312	47.27693176269531	-272.7712097167969	-1472.817993164062	518.4560546875	-48.93955612182617	-1435.139038085938	784.6192626953125	1.892645597457886	-1548.362426757812	39.61800384521484	-87.82273101806641	-1471.646850585938	403.99853515625	-67.66704559326172	-1333.449340820312	47.8218879699707	-103.4710083007812	-1382.304809570312	46.21013641357422	-152.6925811767578	-1442.100830078125	39.2901611328125	-47.33512115478516	-1602.936157226562	40.87976837158203	-155.3194427490234	-1340.845336914062	792.12353515625	43.95934295654297	-1379.09814453125	914.11328125	30.41655349731445	
